<svg width="806" height="98" viewBox="0 0 806 98" fill="none" xmlns="http://www.w3.org/2000/svg">
<path d="M0 85.5625L10.375 68.8125C13.3333 71.1458 16.1458 73.0625 18.8125 74.5625C21.4792 76.0208 24.1042 77.1042 26.6875 77.8125C29.2708 78.5208 31.8958 78.875 34.5625 78.875C37.4792 78.875 39.9792 78.5 42.0625 77.75C44.1875 76.9583 45.8125 75.8542 46.9375 74.4375C48.1042 73.0208 48.6875 71.3333 48.6875 69.375C48.6875 67.0833 47.9167 65.1458 46.375 63.5625C44.8333 61.9375 42.7917 60.5208 40.25 59.3125C37.75 58.0625 35.0208 56.8333 32.0625 55.625C29.0625 54.375 26 53.0208 22.875 51.5625C19.7917 50.1042 16.9583 48.3333 14.375 46.25C11.7917 44.125 9.6875 41.5625 8.0625 38.5625C6.47917 35.5625 5.6875 31.9167 5.6875 27.625C5.6875 21.9583 7.10417 17.1042 9.9375 13.0625C12.8125 8.97917 16.7292 5.85417 21.6875 3.6875C26.6875 1.47917 32.3333 0.375 38.625 0.375C43.2083 0.375 47.9792 0.979167 52.9375 2.1875C57.9375 3.39583 62.9583 5.27083 68 7.8125L59.4375 25.5C56.4375 23.6667 53.1875 22.2292 49.6875 21.1875C46.2292 20.1042 43 19.5625 40 19.5625C37.625 19.5625 35.5417 19.9167 33.75 20.625C32 21.2917 30.625 22.25 29.625 23.5C28.6667 24.75 28.1875 26.2083 28.1875 27.875C28.1875 30 28.9375 31.8542 30.4375 33.4375C31.9792 34.9792 33.9792 36.375 36.4375 37.625C38.8958 38.875 41.5625 40.1458 44.4375 41.4375C47.4792 42.7292 50.5625 44.1667 53.6875 45.75C56.8542 47.3333 59.75 49.2083 62.375 51.375C65.0417 53.5 67.1667 56.0625 68.75 59.0625C70.375 62.0625 71.1875 65.6667 71.1875 69.875C71.1875 75.4167 69.6875 80.3125 66.6875 84.5625C63.7292 88.7708 59.5625 92.0417 54.1875 94.375C48.8542 96.7083 42.6458 97.875 35.5625 97.875C29.0208 97.875 22.7292 96.8333 16.6875 94.75C10.6875 92.625 5.125 89.5625 0 85.5625Z" fill="white"/>
<path d="M82 96V2.25H115.125C123.083 2.25 129.958 3.5625 135.75 6.1875C141.583 8.8125 146.062 12.5417 149.188 17.375C152.354 22.2083 153.938 27.9583 153.938 34.625C153.938 41.2917 152.354 47.0625 149.188 51.9375C146.062 56.8125 141.625 60.5833 135.875 63.25C130.125 65.875 123.292 67.1875 115.375 67.1875H104V96H82ZM104 48H113C118.958 48 123.521 46.8542 126.688 44.5625C129.854 42.2292 131.438 38.9167 131.438 34.625C131.438 30.4167 129.854 27.1667 126.688 24.875C123.521 22.5833 118.958 21.4375 113 21.4375H104V48Z" fill="white"/>
<path d="M340.625 84.3125C336.25 88.5625 331.062 91.8958 325.062 94.3125C319.062 96.6875 312.521 97.875 305.438 97.875C298.312 97.875 291.729 96.6667 285.688 94.25C279.646 91.7917 274.396 88.375 269.938 84C265.479 79.5833 262.021 74.4167 259.562 68.5C257.104 62.5833 255.875 56.125 255.875 49.125C255.875 42.125 257.104 35.6667 259.562 29.75C262.021 23.8333 265.479 18.6875 269.938 14.3125C274.396 9.89583 279.646 6.47917 285.688 4.0625C291.729 1.60417 298.312 0.375 305.438 0.375C312.479 0.375 318.979 1.58333 324.938 4C330.896 6.375 336.083 9.70833 340.5 14L325.125 29.4375C322.75 26.3542 319.833 23.9375 316.375 22.1875C312.917 20.4375 309.146 19.5625 305.062 19.5625C301.271 19.5625 297.75 20.3125 294.5 21.8125C291.25 23.3125 288.417 25.3958 286 28.0625C283.583 30.7292 281.708 33.8542 280.375 37.4375C279.042 41.0208 278.375 44.8958 278.375 49.0625C278.375 53.3125 279.042 57.2292 280.375 60.8125C281.708 64.3542 283.583 67.4792 286 70.1875C288.417 72.8542 291.25 74.9375 294.5 76.4375C297.75 77.9375 301.271 78.6875 305.062 78.6875C309.146 78.6875 312.896 77.8125 316.312 76.0625C319.771 74.3125 322.708 71.8958 325.125 68.8125L340.625 84.3125Z" fill="white"/>
<path d="M351.25 96V2.25H412.75V21.4375H373.25V39.375H410.25V58.5625H373.25V76.8125H413.375V96H351.25Z" fill="white"/>
<path fill-rule="evenodd" clip-rule="evenodd" d="M153.625 96H176.688L183.562 77.5625L190.625 58.375L202.188 27.625L213.75 58.375L220.75 77.5625L227.625 96H250.688L213.75 2.25H190.625L153.625 96Z" fill="white"/>
<path d="M525.312 83.5625C521.062 87.9375 515.958 91.3542 510 93.8125C504.042 96.2708 497.562 97.5 490.562 97.5C483.521 97.5 477.042 96.2917 471.125 93.875C465.208 91.4583 460.062 88.0625 455.688 83.6875C451.354 79.2708 447.979 74.1042 445.562 68.1875C443.188 62.2292 442 55.75 442 48.75C442 41.7083 443.188 35.2292 445.562 29.3125C447.979 23.3542 451.354 18.1875 455.688 13.8125C460.062 9.4375 465.208 6.04167 471.125 3.625C477.042 1.20833 483.521 0 490.562 0C497.562 0 504.021 1.22917 509.938 3.6875C515.896 6.14583 521.021 9.54167 525.312 13.875L519.5 19.75C515.958 15.875 511.688 12.8542 506.688 10.6875C501.729 8.47917 496.292 7.375 490.375 7.375C484.625 7.375 479.312 8.41667 474.438 10.5C469.562 12.5417 465.333 15.4375 461.75 19.1875C458.167 22.8958 455.375 27.2708 453.375 32.3125C451.417 37.3125 450.438 42.7917 450.438 48.75C450.438 54.7083 451.417 60.2083 453.375 65.25C455.375 70.25 458.167 74.625 461.75 78.375C465.333 82.0833 469.562 84.9792 474.438 87.0625C479.312 89.1042 484.625 90.125 490.375 90.125C496.292 90.125 501.729 89.0417 506.688 86.875C511.688 84.6667 515.958 81.625 519.5 77.75L525.312 83.5625Z" fill="white"/>
<path d="M586.812 97.5C579.771 97.5 573.292 96.2917 567.375 93.875C561.458 91.4583 556.312 88.0625 551.938 83.6875C547.604 79.2708 544.229 74.1042 541.812 68.1875C539.438 62.2292 538.25 55.75 538.25 48.75C538.25 41.7083 539.438 35.2292 541.812 29.3125C544.229 23.3542 547.604 18.1875 551.938 13.8125C556.312 9.4375 561.458 6.04167 567.375 3.625C573.292 1.20833 579.771 0 586.812 0C593.812 0 600.25 1.20833 606.125 3.625C612.042 6.04167 617.167 9.4375 621.5 13.8125C625.875 18.1875 629.25 23.3542 631.625 29.3125C634.042 35.2292 635.25 41.7083 635.25 48.75C635.25 55.75 634.042 62.2292 631.625 68.1875C629.25 74.1042 625.875 79.2708 621.5 83.6875C617.167 88.0625 612.042 91.4583 606.125 93.875C600.25 96.2917 593.812 97.5 586.812 97.5ZM586.75 90.125C592.542 90.125 597.875 89.1042 602.75 87.0625C607.625 84.9792 611.854 82.0833 615.438 78.375C619.062 74.625 621.854 70.2292 623.812 65.1875C625.812 60.1458 626.812 54.6667 626.812 48.75C626.812 42.8333 625.812 37.3542 623.812 32.3125C621.854 27.2708 619.062 22.8958 615.438 19.1875C611.854 15.4375 607.625 12.5417 602.75 10.5C597.875 8.41667 592.542 7.375 586.75 7.375C581 7.375 575.688 8.41667 570.812 10.5C565.938 12.5417 561.688 15.4375 558.062 19.1875C554.479 22.8958 551.688 27.2708 549.688 32.3125C547.688 37.3125 546.688 42.7917 546.688 48.75C546.688 54.7083 547.688 60.2083 549.688 65.25C551.688 70.25 554.479 74.625 558.062 78.375C561.688 82.0833 565.938 84.9792 570.812 87.0625C575.688 89.1042 581 90.125 586.75 90.125Z" fill="white"/>
<path d="M651.312 95.625V1.875H677.062C688.646 1.875 698.562 3.75 706.812 7.5C715.062 11.2083 721.396 16.5625 725.812 23.5625C730.229 30.5625 732.438 38.9583 732.438 48.75C732.438 58.5 730.229 66.8958 725.812 73.9375C721.396 80.9375 715.062 86.3125 706.812 90.0625C698.562 93.7708 688.646 95.625 677.062 95.625H651.312ZM659.562 88.25H677.5C687.292 88.25 695.646 86.6875 702.562 83.5625C709.521 80.4375 714.833 75.9375 718.5 70.0625C722.167 64.1458 724 57.0417 724 48.75C724 40.4167 722.167 33.3125 718.5 27.4375C714.833 21.5625 709.521 17.0625 702.562 13.9375C695.646 10.8125 687.292 9.25 677.5 9.25H659.562V88.25Z" fill="white"/>
<path d="M748.438 95.625V1.875H804.875V9.25H756.688V44.1875H802.312V51.5625H756.688V88.25H805.5V95.625H748.438Z" fill="white"/>
</svg>
